<?xml version="1.0" encoding="UTF-8" standalone="no"?>
<!DOCTYPE svg PUBLIC "-//W3C//DTD SVG 1.1//EN"
 "http://www.w3.org/Graphics/SVG/1.1/DTD/svg11.dtd">
<!-- Generated by graphviz version 2.43.0 (0)
 -->
<!-- Title: $paramod$5ffc2edb83531d77a493881c05624b27491ca8ac&#9586;RegFile Pages: 1 -->
<svg width="875pt" height="1016pt"
 viewBox="0.00 0.00 874.61 1016.00" xmlns="http://www.w3.org/2000/svg" xmlns:xlink="http://www.w3.org/1999/xlink">
<g id="graph0" class="graph" transform="scale(1 1) rotate(0) translate(4 1012)">
<title>$paramod$5ffc2edb83531d77a493881c05624b27491ca8ac&#9586;RegFile</title>
<polygon fill="white" stroke="transparent" points="-4,4 -4,-1012 870.61,-1012 870.61,4 -4,4"/>
<!-- n15 -->
<g id="node1" class="node">
<title>n15</title>
<polygon fill="none" stroke="black" points="866.5,-64.54 866.5,-79.46 832.36,-90 784.08,-90 749.94,-79.46 749.94,-64.54 784.08,-54 832.36,-54 866.5,-64.54"/>
<text text-anchor="middle" x="808.22" y="-68.3" font-family="Times,serif" font-size="14.00">D_OUT_5</text>
</g>
<!-- n16 -->
<g id="node2" class="node">
<title>n16</title>
<polygon fill="none" stroke="black" points="110.91,-118.54 110.91,-133.46 80.15,-144 36.63,-144 5.86,-133.46 5.86,-118.54 36.63,-108 80.15,-108 110.91,-118.54"/>
<text text-anchor="middle" x="58.39" y="-122.3" font-family="Times,serif" font-size="14.00">ADDR_5</text>
</g>
<!-- c32 -->
<g id="node17" class="node">
<title>c32</title>
<polygon fill="none" stroke="black" points="217.78,-37.5 217.78,-106.5 408.78,-106.5 408.78,-37.5 217.78,-37.5"/>
<text text-anchor="middle" x="247.28" y="-91.3" font-family="Times,serif" font-size="14.00">ADDR</text>
<polyline fill="none" stroke="black" points="217.78,-83.5 276.78,-83.5 "/>
<text text-anchor="middle" x="247.28" y="-68.3" font-family="Times,serif" font-size="14.00">CLK</text>
<polyline fill="none" stroke="black" points="217.78,-60.5 276.78,-60.5 "/>
<text text-anchor="middle" x="247.28" y="-45.3" font-family="Times,serif" font-size="14.00">EN</text>
<polyline fill="none" stroke="black" points="276.78,-37.5 276.78,-106.5 "/>
<text text-anchor="middle" x="315.28" y="-75.8" font-family="Times,serif" font-size="14.00">$3917</text>
<text text-anchor="middle" x="315.28" y="-60.8" font-family="Times,serif" font-size="14.00">$memrd</text>
<polyline fill="none" stroke="black" points="353.78,-37.5 353.78,-106.5 "/>
<text text-anchor="middle" x="381.28" y="-68.3" font-family="Times,serif" font-size="14.00">DATA</text>
</g>
<!-- n16&#45;&gt;c32 -->
<g id="edge6" class="edge">
<title>n16:e&#45;&gt;c32:w</title>
<path fill="none" stroke="black" stroke-width="3" d="M112.39,-126C157,-126 166.75,-99.43 206.19,-95.49"/>
<polygon fill="black" stroke="black" stroke-width="3" points="206.46,-98.98 216.28,-95 206.12,-91.99 206.46,-98.98"/>
</g>
<!-- n17 -->
<g id="node3" class="node">
<title>n17</title>
<polygon fill="none" stroke="black" points="866.5,-226.54 866.5,-241.46 832.36,-252 784.08,-252 749.94,-241.46 749.94,-226.54 784.08,-216 832.36,-216 866.5,-226.54"/>
<text text-anchor="middle" x="808.22" y="-230.3" font-family="Times,serif" font-size="14.00">D_OUT_4</text>
</g>
<!-- n18 -->
<g id="node4" class="node">
<title>n18</title>
<polygon fill="none" stroke="black" points="110.91,-280.54 110.91,-295.46 80.15,-306 36.63,-306 5.86,-295.46 5.86,-280.54 36.63,-270 80.15,-270 110.91,-280.54"/>
<text text-anchor="middle" x="58.39" y="-284.3" font-family="Times,serif" font-size="14.00">ADDR_4</text>
</g>
<!-- c33 -->
<g id="node20" class="node">
<title>c33</title>
<polygon fill="none" stroke="black" points="217.78,-199.5 217.78,-268.5 408.78,-268.5 408.78,-199.5 217.78,-199.5"/>
<text text-anchor="middle" x="247.28" y="-253.3" font-family="Times,serif" font-size="14.00">ADDR</text>
<polyline fill="none" stroke="black" points="217.78,-245.5 276.78,-245.5 "/>
<text text-anchor="middle" x="247.28" y="-230.3" font-family="Times,serif" font-size="14.00">CLK</text>
<polyline fill="none" stroke="black" points="217.78,-222.5 276.78,-222.5 "/>
<text text-anchor="middle" x="247.28" y="-207.3" font-family="Times,serif" font-size="14.00">EN</text>
<polyline fill="none" stroke="black" points="276.78,-199.5 276.78,-268.5 "/>
<text text-anchor="middle" x="315.28" y="-237.8" font-family="Times,serif" font-size="14.00">$3916</text>
<text text-anchor="middle" x="315.28" y="-222.8" font-family="Times,serif" font-size="14.00">$memrd</text>
<polyline fill="none" stroke="black" points="353.78,-199.5 353.78,-268.5 "/>
<text text-anchor="middle" x="381.28" y="-230.3" font-family="Times,serif" font-size="14.00">DATA</text>
</g>
<!-- n18&#45;&gt;c33 -->
<g id="edge8" class="edge">
<title>n18:e&#45;&gt;c33:w</title>
<path fill="none" stroke="black" stroke-width="3" d="M112.39,-288C157,-288 166.75,-261.43 206.19,-257.49"/>
<polygon fill="black" stroke="black" stroke-width="3" points="206.46,-260.98 216.28,-257 206.12,-253.99 206.46,-260.98"/>
</g>
<!-- n19 -->
<g id="node5" class="node">
<title>n19</title>
<polygon fill="none" stroke="black" points="866.5,-388.54 866.5,-403.46 832.36,-414 784.08,-414 749.94,-403.46 749.94,-388.54 784.08,-378 832.36,-378 866.5,-388.54"/>
<text text-anchor="middle" x="808.22" y="-392.3" font-family="Times,serif" font-size="14.00">D_OUT_3</text>
</g>
<!-- n20 -->
<g id="node6" class="node">
<title>n20</title>
<polygon fill="none" stroke="black" points="110.91,-442.54 110.91,-457.46 80.15,-468 36.63,-468 5.86,-457.46 5.86,-442.54 36.63,-432 80.15,-432 110.91,-442.54"/>
<text text-anchor="middle" x="58.39" y="-446.3" font-family="Times,serif" font-size="14.00">ADDR_3</text>
</g>
<!-- c34 -->
<g id="node23" class="node">
<title>c34</title>
<polygon fill="none" stroke="black" points="217.78,-361.5 217.78,-430.5 408.78,-430.5 408.78,-361.5 217.78,-361.5"/>
<text text-anchor="middle" x="247.28" y="-415.3" font-family="Times,serif" font-size="14.00">ADDR</text>
<polyline fill="none" stroke="black" points="217.78,-407.5 276.78,-407.5 "/>
<text text-anchor="middle" x="247.28" y="-392.3" font-family="Times,serif" font-size="14.00">CLK</text>
<polyline fill="none" stroke="black" points="217.78,-384.5 276.78,-384.5 "/>
<text text-anchor="middle" x="247.28" y="-369.3" font-family="Times,serif" font-size="14.00">EN</text>
<polyline fill="none" stroke="black" points="276.78,-361.5 276.78,-430.5 "/>
<text text-anchor="middle" x="315.28" y="-399.8" font-family="Times,serif" font-size="14.00">$3915</text>
<text text-anchor="middle" x="315.28" y="-384.8" font-family="Times,serif" font-size="14.00">$memrd</text>
<polyline fill="none" stroke="black" points="353.78,-361.5 353.78,-430.5 "/>
<text text-anchor="middle" x="381.28" y="-392.3" font-family="Times,serif" font-size="14.00">DATA</text>
</g>
<!-- n20&#45;&gt;c34 -->
<g id="edge11" class="edge">
<title>n20:e&#45;&gt;c34:w</title>
<path fill="none" stroke="black" stroke-width="3" d="M112.39,-450C157,-450 166.75,-423.43 206.19,-419.49"/>
<polygon fill="black" stroke="black" stroke-width="3" points="206.46,-422.98 216.28,-419 206.12,-415.99 206.46,-422.98"/>
</g>
<!-- n21 -->
<g id="node7" class="node">
<title>n21</title>
<polygon fill="none" stroke="black" points="866.5,-550.54 866.5,-565.46 832.36,-576 784.08,-576 749.94,-565.46 749.94,-550.54 784.08,-540 832.36,-540 866.5,-550.54"/>
<text text-anchor="middle" x="808.22" y="-554.3" font-family="Times,serif" font-size="14.00">D_OUT_2</text>
</g>
<!-- n22 -->
<g id="node8" class="node">
<title>n22</title>
<polygon fill="none" stroke="black" points="110.91,-604.54 110.91,-619.46 80.15,-630 36.63,-630 5.86,-619.46 5.86,-604.54 36.63,-594 80.15,-594 110.91,-604.54"/>
<text text-anchor="middle" x="58.39" y="-608.3" font-family="Times,serif" font-size="14.00">ADDR_2</text>
</g>
<!-- c35 -->
<g id="node26" class="node">
<title>c35</title>
<polygon fill="none" stroke="black" points="217.78,-523.5 217.78,-592.5 408.78,-592.5 408.78,-523.5 217.78,-523.5"/>
<text text-anchor="middle" x="247.28" y="-577.3" font-family="Times,serif" font-size="14.00">ADDR</text>
<polyline fill="none" stroke="black" points="217.78,-569.5 276.78,-569.5 "/>
<text text-anchor="middle" x="247.28" y="-554.3" font-family="Times,serif" font-size="14.00">CLK</text>
<polyline fill="none" stroke="black" points="217.78,-546.5 276.78,-546.5 "/>
<text text-anchor="middle" x="247.28" y="-531.3" font-family="Times,serif" font-size="14.00">EN</text>
<polyline fill="none" stroke="black" points="276.78,-523.5 276.78,-592.5 "/>
<text text-anchor="middle" x="315.28" y="-561.8" font-family="Times,serif" font-size="14.00">$3914</text>
<text text-anchor="middle" x="315.28" y="-546.8" font-family="Times,serif" font-size="14.00">$memrd</text>
<polyline fill="none" stroke="black" points="353.78,-523.5 353.78,-592.5 "/>
<text text-anchor="middle" x="381.28" y="-554.3" font-family="Times,serif" font-size="14.00">DATA</text>
</g>
<!-- n22&#45;&gt;c35 -->
<g id="edge13" class="edge">
<title>n22:e&#45;&gt;c35:w</title>
<path fill="none" stroke="black" stroke-width="3" d="M112.39,-612C157,-612 166.75,-585.43 206.19,-581.49"/>
<polygon fill="black" stroke="black" stroke-width="3" points="206.46,-584.98 216.28,-581 206.12,-577.99 206.46,-584.98"/>
</g>
<!-- n23 -->
<g id="node9" class="node">
<title>n23</title>
<polygon fill="none" stroke="black" points="866.5,-712.54 866.5,-727.46 832.36,-738 784.08,-738 749.94,-727.46 749.94,-712.54 784.08,-702 832.36,-702 866.5,-712.54"/>
<text text-anchor="middle" x="808.22" y="-716.3" font-family="Times,serif" font-size="14.00">D_OUT_1</text>
</g>
<!-- n24 -->
<g id="node10" class="node">
<title>n24</title>
<polygon fill="none" stroke="black" points="110.91,-766.54 110.91,-781.46 80.15,-792 36.63,-792 5.86,-781.46 5.86,-766.54 36.63,-756 80.15,-756 110.91,-766.54"/>
<text text-anchor="middle" x="58.39" y="-770.3" font-family="Times,serif" font-size="14.00">ADDR_1</text>
</g>
<!-- c36 -->
<g id="node29" class="node">
<title>c36</title>
<polygon fill="none" stroke="black" points="217.78,-685.5 217.78,-754.5 408.78,-754.5 408.78,-685.5 217.78,-685.5"/>
<text text-anchor="middle" x="247.28" y="-739.3" font-family="Times,serif" font-size="14.00">ADDR</text>
<polyline fill="none" stroke="black" points="217.78,-731.5 276.78,-731.5 "/>
<text text-anchor="middle" x="247.28" y="-716.3" font-family="Times,serif" font-size="14.00">CLK</text>
<polyline fill="none" stroke="black" points="217.78,-708.5 276.78,-708.5 "/>
<text text-anchor="middle" x="247.28" y="-693.3" font-family="Times,serif" font-size="14.00">EN</text>
<polyline fill="none" stroke="black" points="276.78,-685.5 276.78,-754.5 "/>
<text text-anchor="middle" x="315.28" y="-723.8" font-family="Times,serif" font-size="14.00">$3913</text>
<text text-anchor="middle" x="315.28" y="-708.8" font-family="Times,serif" font-size="14.00">$memrd</text>
<polyline fill="none" stroke="black" points="353.78,-685.5 353.78,-754.5 "/>
<text text-anchor="middle" x="381.28" y="-716.3" font-family="Times,serif" font-size="14.00">DATA</text>
</g>
<!-- n24&#45;&gt;c36 -->
<g id="edge15" class="edge">
<title>n24:e&#45;&gt;c36:w</title>
<path fill="none" stroke="black" stroke-width="3" d="M112.39,-774C157,-774 166.75,-747.43 206.19,-743.49"/>
<polygon fill="black" stroke="black" stroke-width="3" points="206.46,-746.98 216.28,-743 206.12,-739.99 206.46,-746.98"/>
</g>
<!-- n25 -->
<g id="node11" class="node">
<title>n25</title>
<polygon fill="none" stroke="black" points="87.08,-982.54 87.08,-997.46 70.27,-1008 46.51,-1008 29.7,-997.46 29.7,-982.54 46.51,-972 70.27,-972 87.08,-982.54"/>
<text text-anchor="middle" x="58.39" y="-986.3" font-family="Times,serif" font-size="14.00">WE</text>
</g>
<!-- p10 -->
<g id="node30" class="node">
<title>p10</title>
<path fill="none" stroke="black" d="M461.78,-928C461.78,-928 164.78,-928 164.78,-928 158.78,-928 152.78,-922 152.78,-916 152.78,-916 152.78,-902 152.78,-902 152.78,-896 158.78,-890 164.78,-890 164.78,-890 461.78,-890 461.78,-890 467.78,-890 473.78,-896 473.78,-902 473.78,-902 473.78,-916 473.78,-916 473.78,-922 467.78,-928 461.78,-928"/>
<text text-anchor="middle" x="313.28" y="-912.8" font-family="Times,serif" font-size="14.00">PROC $3906</text>
<text text-anchor="middle" x="313.28" y="-897.8" font-family="Times,serif" font-size="14.00">thielecpu/hardware/rtl/RegFile.v:65.4&#45;69.9</text>
</g>
<!-- n25&#45;&gt;p10 -->
<g id="edge16" class="edge">
<title>n25:e&#45;&gt;p10:w</title>
<path fill="none" stroke="black" d="M88.39,-990C130.61,-990 110.82,-921.74 142.87,-910.55"/>
<polygon fill="black" stroke="black" points="143.44,-914 152.78,-909 142.36,-907.08 143.44,-914"/>
</g>
<!-- n26 -->
<g id="node12" class="node">
<title>n26</title>
<polygon fill="none" stroke="black" points="95.05,-928.54 95.05,-943.46 73.58,-954 43.2,-954 21.73,-943.46 21.73,-928.54 43.2,-918 73.58,-918 95.05,-928.54"/>
<text text-anchor="middle" x="58.39" y="-932.3" font-family="Times,serif" font-size="14.00">D_IN</text>
</g>
<!-- n26&#45;&gt;p10 -->
<g id="edge17" class="edge">
<title>n26:e&#45;&gt;p10:w</title>
<path fill="none" stroke="black" stroke-width="3" d="M96.39,-936C120.38,-936 124.27,-915.88 142.76,-910.38"/>
<polygon fill="black" stroke="black" stroke-width="3" points="143.35,-913.83 152.78,-909 142.4,-906.89 143.35,-913.83"/>
</g>
<!-- n27 -->
<g id="node13" class="node">
<title>n27</title>
<polygon fill="none" stroke="black" points="116.67,-874.54 116.67,-889.46 82.53,-900 34.25,-900 0.11,-889.46 0.11,-874.54 34.25,-864 82.53,-864 116.67,-874.54"/>
<text text-anchor="middle" x="58.39" y="-878.3" font-family="Times,serif" font-size="14.00">ADDR_IN</text>
</g>
<!-- n27&#45;&gt;p10 -->
<g id="edge18" class="edge">
<title>n27:e&#45;&gt;p10:w</title>
<path fill="none" stroke="black" stroke-width="3" d="M116.78,-882C132.72,-882 133.41,-899.15 143.16,-906.11"/>
<polygon fill="black" stroke="black" stroke-width="3" points="142.2,-909.48 152.78,-909 144.21,-902.77 142.2,-909.48"/>
</g>
<!-- n28 -->
<g id="node14" class="node">
<title>n28</title>
<polygon fill="none" stroke="black" points="91.52,-820.54 91.52,-835.46 72.11,-846 44.67,-846 25.26,-835.46 25.26,-820.54 44.67,-810 72.11,-810 91.52,-820.54"/>
<text text-anchor="middle" x="58.39" y="-824.3" font-family="Times,serif" font-size="14.00">CLK</text>
</g>
<!-- n28&#45;&gt;p10 -->
<g id="edge19" class="edge">
<title>n28:e&#45;&gt;p10:w</title>
<path fill="none" stroke="black" d="M92.39,-828C133.44,-828 112.38,-895.68 142.76,-907.31"/>
<polygon fill="black" stroke="black" points="142.34,-910.79 152.78,-909 143.5,-903.88 142.34,-910.79"/>
</g>
<!-- v0 -->
<g id="node15" class="node">
<title>v0</title>
<ellipse fill="none" stroke="black" cx="58.39" cy="-18" rx="27" ry="18"/>
<text text-anchor="middle" x="58.39" y="-14.3" font-family="Times,serif" font-size="14.00">1&#39;x</text>
</g>
<!-- v0&#45;&gt;c32 -->
<g id="edge23" class="edge">
<title>v0:e&#45;&gt;c32:w</title>
<path fill="none" stroke="black" d="M86.39,-18C142.15,-18 155.4,-45.36 206.01,-48.67"/>
<polygon fill="black" stroke="black" points="206.17,-52.18 216.28,-49 206.4,-45.18 206.17,-52.18"/>
</g>
<!-- v1 -->
<g id="node16" class="node">
<title>v1</title>
<ellipse fill="none" stroke="black" cx="58.39" cy="-72" rx="27" ry="18"/>
<text text-anchor="middle" x="58.39" y="-68.3" font-family="Times,serif" font-size="14.00">1&#39;x</text>
</g>
<!-- v1&#45;&gt;c32 -->
<g id="edge24" class="edge">
<title>v1:e&#45;&gt;c32:w</title>
<path fill="none" stroke="black" d="M86.39,-72C140.62,-72 156.64,-72 206.25,-72"/>
<polygon fill="black" stroke="black" points="206.28,-75.5 216.28,-72 206.28,-68.5 206.28,-75.5"/>
</g>
<!-- x15 -->
<g id="node35" class="node">
<title>x15</title>
<path fill="none" stroke="black" d="M626.81,-90C626.81,-90 596.81,-90 596.81,-90 590.81,-90 584.81,-84 584.81,-78 584.81,-78 584.81,-66 584.81,-66 584.81,-60 590.81,-54 596.81,-54 596.81,-54 626.81,-54 626.81,-54 632.81,-54 638.81,-60 638.81,-66 638.81,-66 638.81,-78 638.81,-78 638.81,-84 632.81,-90 626.81,-90"/>
<text text-anchor="middle" x="611.81" y="-68.3" font-family="Times,serif" font-size="14.00">BUF</text>
</g>
<!-- c32&#45;&gt;x15 -->
<g id="edge1" class="edge">
<title>c32:e&#45;&gt;x15:w</title>
<path fill="none" stroke="black" stroke-width="3" d="M410.28,-72C483.94,-72 504.83,-72 573.75,-72"/>
<polygon fill="black" stroke="black" stroke-width="3" points="573.81,-75.5 583.81,-72 573.81,-68.5 573.81,-75.5"/>
</g>
<!-- v2 -->
<g id="node18" class="node">
<title>v2</title>
<ellipse fill="none" stroke="black" cx="58.39" cy="-180" rx="27" ry="18"/>
<text text-anchor="middle" x="58.39" y="-176.3" font-family="Times,serif" font-size="14.00">1&#39;x</text>
</g>
<!-- v2&#45;&gt;c33 -->
<g id="edge25" class="edge">
<title>v2:e&#45;&gt;c33:w</title>
<path fill="none" stroke="black" d="M86.39,-180C142.15,-180 155.4,-207.36 206.01,-210.67"/>
<polygon fill="black" stroke="black" points="206.17,-214.18 216.28,-211 206.4,-207.18 206.17,-214.18"/>
</g>
<!-- v3 -->
<g id="node19" class="node">
<title>v3</title>
<ellipse fill="none" stroke="black" cx="58.39" cy="-234" rx="27" ry="18"/>
<text text-anchor="middle" x="58.39" y="-230.3" font-family="Times,serif" font-size="14.00">1&#39;x</text>
</g>
<!-- v3&#45;&gt;c33 -->
<g id="edge26" class="edge">
<title>v3:e&#45;&gt;c33:w</title>
<path fill="none" stroke="black" d="M86.39,-234C140.62,-234 156.64,-234 206.25,-234"/>
<polygon fill="black" stroke="black" points="206.28,-237.5 216.28,-234 206.28,-230.5 206.28,-237.5"/>
</g>
<!-- x14 -->
<g id="node34" class="node">
<title>x14</title>
<path fill="none" stroke="black" d="M626.81,-252C626.81,-252 596.81,-252 596.81,-252 590.81,-252 584.81,-246 584.81,-240 584.81,-240 584.81,-228 584.81,-228 584.81,-222 590.81,-216 596.81,-216 596.81,-216 626.81,-216 626.81,-216 632.81,-216 638.81,-222 638.81,-228 638.81,-228 638.81,-240 638.81,-240 638.81,-246 632.81,-252 626.81,-252"/>
<text text-anchor="middle" x="611.81" y="-230.3" font-family="Times,serif" font-size="14.00">BUF</text>
</g>
<!-- c33&#45;&gt;x14 -->
<g id="edge10" class="edge">
<title>c33:e&#45;&gt;x14:w</title>
<path fill="none" stroke="black" stroke-width="3" d="M410.28,-234C483.94,-234 504.83,-234 573.75,-234"/>
<polygon fill="black" stroke="black" stroke-width="3" points="573.81,-237.5 583.81,-234 573.81,-230.5 573.81,-237.5"/>
</g>
<!-- v4 -->
<g id="node21" class="node">
<title>v4</title>
<ellipse fill="none" stroke="black" cx="58.39" cy="-342" rx="27" ry="18"/>
<text text-anchor="middle" x="58.39" y="-338.3" font-family="Times,serif" font-size="14.00">1&#39;x</text>
</g>
<!-- v4&#45;&gt;c34 -->
<g id="edge27" class="edge">
<title>v4:e&#45;&gt;c34:w</title>
<path fill="none" stroke="black" d="M86.39,-342C142.15,-342 155.4,-369.36 206.01,-372.67"/>
<polygon fill="black" stroke="black" points="206.17,-376.18 216.28,-373 206.4,-369.18 206.17,-376.18"/>
</g>
<!-- v5 -->
<g id="node22" class="node">
<title>v5</title>
<ellipse fill="none" stroke="black" cx="58.39" cy="-396" rx="27" ry="18"/>
<text text-anchor="middle" x="58.39" y="-392.3" font-family="Times,serif" font-size="14.00">1&#39;x</text>
</g>
<!-- v5&#45;&gt;c34 -->
<g id="edge28" class="edge">
<title>v5:e&#45;&gt;c34:w</title>
<path fill="none" stroke="black" d="M86.39,-396C140.62,-396 156.64,-396 206.25,-396"/>
<polygon fill="black" stroke="black" points="206.28,-399.5 216.28,-396 206.28,-392.5 206.28,-399.5"/>
</g>
<!-- x13 -->
<g id="node33" class="node">
<title>x13</title>
<path fill="none" stroke="black" d="M626.81,-414C626.81,-414 596.81,-414 596.81,-414 590.81,-414 584.81,-408 584.81,-402 584.81,-402 584.81,-390 584.81,-390 584.81,-384 590.81,-378 596.81,-378 596.81,-378 626.81,-378 626.81,-378 632.81,-378 638.81,-384 638.81,-390 638.81,-390 638.81,-402 638.81,-402 638.81,-408 632.81,-414 626.81,-414"/>
<text text-anchor="middle" x="611.81" y="-392.3" font-family="Times,serif" font-size="14.00">BUF</text>
</g>
<!-- c34&#45;&gt;x13 -->
<g id="edge20" class="edge">
<title>c34:e&#45;&gt;x13:w</title>
<path fill="none" stroke="black" stroke-width="3" d="M410.28,-396C483.94,-396 504.83,-396 573.75,-396"/>
<polygon fill="black" stroke="black" stroke-width="3" points="573.81,-399.5 583.81,-396 573.81,-392.5 573.81,-399.5"/>
</g>
<!-- v6 -->
<g id="node24" class="node">
<title>v6</title>
<ellipse fill="none" stroke="black" cx="58.39" cy="-504" rx="27" ry="18"/>
<text text-anchor="middle" x="58.39" y="-500.3" font-family="Times,serif" font-size="14.00">1&#39;x</text>
</g>
<!-- v6&#45;&gt;c35 -->
<g id="edge29" class="edge">
<title>v6:e&#45;&gt;c35:w</title>
<path fill="none" stroke="black" d="M86.39,-504C142.15,-504 155.4,-531.36 206.01,-534.67"/>
<polygon fill="black" stroke="black" points="206.17,-538.18 216.28,-535 206.4,-531.18 206.17,-538.18"/>
</g>
<!-- v7 -->
<g id="node25" class="node">
<title>v7</title>
<ellipse fill="none" stroke="black" cx="58.39" cy="-558" rx="27" ry="18"/>
<text text-anchor="middle" x="58.39" y="-554.3" font-family="Times,serif" font-size="14.00">1&#39;x</text>
</g>
<!-- v7&#45;&gt;c35 -->
<g id="edge30" class="edge">
<title>v7:e&#45;&gt;c35:w</title>
<path fill="none" stroke="black" d="M86.39,-558C140.62,-558 156.64,-558 206.25,-558"/>
<polygon fill="black" stroke="black" points="206.28,-561.5 216.28,-558 206.28,-554.5 206.28,-561.5"/>
</g>
<!-- x12 -->
<g id="node32" class="node">
<title>x12</title>
<path fill="none" stroke="black" d="M626.81,-576C626.81,-576 596.81,-576 596.81,-576 590.81,-576 584.81,-570 584.81,-564 584.81,-564 584.81,-552 584.81,-552 584.81,-546 590.81,-540 596.81,-540 596.81,-540 626.81,-540 626.81,-540 632.81,-540 638.81,-546 638.81,-552 638.81,-552 638.81,-564 638.81,-564 638.81,-570 632.81,-576 626.81,-576"/>
<text text-anchor="middle" x="611.81" y="-554.3" font-family="Times,serif" font-size="14.00">BUF</text>
</g>
<!-- c35&#45;&gt;x12 -->
<g id="edge21" class="edge">
<title>c35:e&#45;&gt;x12:w</title>
<path fill="none" stroke="black" stroke-width="3" d="M410.28,-558C483.94,-558 504.83,-558 573.75,-558"/>
<polygon fill="black" stroke="black" stroke-width="3" points="573.81,-561.5 583.81,-558 573.81,-554.5 573.81,-561.5"/>
</g>
<!-- v8 -->
<g id="node27" class="node">
<title>v8</title>
<ellipse fill="none" stroke="black" cx="58.39" cy="-666" rx="27" ry="18"/>
<text text-anchor="middle" x="58.39" y="-662.3" font-family="Times,serif" font-size="14.00">1&#39;x</text>
</g>
<!-- v8&#45;&gt;c36 -->
<g id="edge31" class="edge">
<title>v8:e&#45;&gt;c36:w</title>
<path fill="none" stroke="black" d="M86.39,-666C142.15,-666 155.4,-693.36 206.01,-696.67"/>
<polygon fill="black" stroke="black" points="206.17,-700.18 216.28,-697 206.4,-693.18 206.17,-700.18"/>
</g>
<!-- v9 -->
<g id="node28" class="node">
<title>v9</title>
<ellipse fill="none" stroke="black" cx="58.39" cy="-720" rx="27" ry="18"/>
<text text-anchor="middle" x="58.39" y="-716.3" font-family="Times,serif" font-size="14.00">1&#39;x</text>
</g>
<!-- v9&#45;&gt;c36 -->
<g id="edge32" class="edge">
<title>v9:e&#45;&gt;c36:w</title>
<path fill="none" stroke="black" d="M86.39,-720C140.62,-720 156.64,-720 206.25,-720"/>
<polygon fill="black" stroke="black" points="206.28,-723.5 216.28,-720 206.28,-716.5 206.28,-723.5"/>
</g>
<!-- x11 -->
<g id="node31" class="node">
<title>x11</title>
<path fill="none" stroke="black" d="M626.81,-738C626.81,-738 596.81,-738 596.81,-738 590.81,-738 584.81,-732 584.81,-726 584.81,-726 584.81,-714 584.81,-714 584.81,-708 590.81,-702 596.81,-702 596.81,-702 626.81,-702 626.81,-702 632.81,-702 638.81,-708 638.81,-714 638.81,-714 638.81,-726 638.81,-726 638.81,-732 632.81,-738 626.81,-738"/>
<text text-anchor="middle" x="611.81" y="-716.3" font-family="Times,serif" font-size="14.00">BUF</text>
</g>
<!-- c36&#45;&gt;x11 -->
<g id="edge22" class="edge">
<title>c36:e&#45;&gt;x11:w</title>
<path fill="none" stroke="black" stroke-width="3" d="M410.28,-720C483.94,-720 504.83,-720 573.75,-720"/>
<polygon fill="black" stroke="black" stroke-width="3" points="573.81,-723.5 583.81,-720 573.81,-716.5 573.81,-723.5"/>
</g>
<!-- n12 -->
<g id="node36" class="node">
<title>n12</title>
<polygon fill="none" stroke="black" points="611.81,-981 528.02,-963 611.81,-945 695.59,-963 611.81,-981"/>
<text text-anchor="middle" x="611.81" y="-959.3" font-family="Times,serif" font-size="14.00">$3905_EN</text>
</g>
<!-- p10&#45;&gt;n12 -->
<g id="edge2" class="edge">
<title>p10:e&#45;&gt;n12:w</title>
<path fill="none" stroke="black" stroke-width="3" d="M473.78,-909C503.47,-909 495.85,-951.09 516.8,-960.95"/>
<polygon fill="black" stroke="black" stroke-width="3" points="516.31,-964.42 526.81,-963 517.71,-957.56 516.31,-964.42"/>
</g>
<!-- n13 -->
<g id="node37" class="node">
<title>n13</title>
<polygon fill="none" stroke="black" points="611.81,-927 513.61,-909 611.81,-891 710.01,-909 611.81,-927"/>
<text text-anchor="middle" x="611.81" y="-905.3" font-family="Times,serif" font-size="14.00">$3905_DATA</text>
</g>
<!-- p10&#45;&gt;n13 -->
<g id="edge3" class="edge">
<title>p10:e&#45;&gt;n13:w</title>
<path fill="none" stroke="black" stroke-width="3" d="M473.78,-909C487.2,-909 492.83,-909 502.72,-909"/>
<polygon fill="black" stroke="black" stroke-width="3" points="502.81,-912.5 512.81,-909 502.81,-905.5 502.81,-912.5"/>
</g>
<!-- n14 -->
<g id="node38" class="node">
<title>n14</title>
<polygon fill="none" stroke="black" points="611.81,-873 509.75,-855 611.81,-837 713.86,-855 611.81,-873"/>
<text text-anchor="middle" x="611.81" y="-851.3" font-family="Times,serif" font-size="14.00">$3905_ADDR</text>
</g>
<!-- p10&#45;&gt;n14 -->
<g id="edge4" class="edge">
<title>p10:e&#45;&gt;n14:w</title>
<path fill="none" stroke="black" stroke-width="3" d="M473.78,-909C498.34,-909 486.26,-869.84 499.94,-858.22"/>
<polygon fill="black" stroke="black" stroke-width="3" points="501.36,-861.43 509.78,-855 499.19,-854.78 501.36,-861.43"/>
</g>
<!-- x11&#45;&gt;n23 -->
<g id="edge14" class="edge">
<title>x11:e&#45;&gt;n23:w</title>
<path fill="none" stroke="black" stroke-width="3" d="M639.81,-720C685.17,-720 698.97,-720 739.78,-720"/>
<polygon fill="black" stroke="black" stroke-width="3" points="739.83,-723.5 749.83,-720 739.83,-716.5 739.83,-723.5"/>
</g>
<!-- x12&#45;&gt;n21 -->
<g id="edge12" class="edge">
<title>x12:e&#45;&gt;n21:w</title>
<path fill="none" stroke="black" stroke-width="3" d="M639.81,-558C685.17,-558 698.97,-558 739.78,-558"/>
<polygon fill="black" stroke="black" stroke-width="3" points="739.83,-561.5 749.83,-558 739.83,-554.5 739.83,-561.5"/>
</g>
<!-- x13&#45;&gt;n19 -->
<g id="edge9" class="edge">
<title>x13:e&#45;&gt;n19:w</title>
<path fill="none" stroke="black" stroke-width="3" d="M639.81,-396C685.17,-396 698.97,-396 739.78,-396"/>
<polygon fill="black" stroke="black" stroke-width="3" points="739.83,-399.5 749.83,-396 739.83,-392.5 739.83,-399.5"/>
</g>
<!-- x14&#45;&gt;n17 -->
<g id="edge7" class="edge">
<title>x14:e&#45;&gt;n17:w</title>
<path fill="none" stroke="black" stroke-width="3" d="M639.81,-234C685.17,-234 698.97,-234 739.78,-234"/>
<polygon fill="black" stroke="black" stroke-width="3" points="739.83,-237.5 749.83,-234 739.83,-230.5 739.83,-237.5"/>
</g>
<!-- x15&#45;&gt;n15 -->
<g id="edge5" class="edge">
<title>x15:e&#45;&gt;n15:w</title>
<path fill="none" stroke="black" stroke-width="3" d="M639.81,-72C685.17,-72 698.97,-72 739.78,-72"/>
<polygon fill="black" stroke="black" stroke-width="3" points="739.83,-75.5 749.83,-72 739.83,-68.5 739.83,-75.5"/>
</g>
</g>
</svg>
